<?xml version="1.0" encoding="utf-8"?>
<!DOCTYPE svg PUBLIC "-//W3C//DTD SVG 1.1//EN" "http://www.w3.org/Graphics/SVG/1.1/DTD/svg11.dtd">
<svg version="1.1" xmlns="http://www.w3.org/2000/svg" xmlns:xlink="http://www.w3.org/1999/xlink" x="0px" y="0px" width="669px" height="762px" viewBox="0 0 669 762" enable-background="new 0 0 669 762" xml:space="preserve">
<image overflow="visible" enable-background="new" width="669" height="762" xlink:href="battlemap.jpg"></image>
<filter id="contrast+" color-interpolation-filters="sRGB">
    <feComponentTransfer>
        <feFuncR type="table" tableValues="-0.25 1.25"/>
        <feFuncG type="table" tableValues="-0.25 1.25"/>
        <feFuncB type="table" tableValues="-0.25 1.25"/>
    </feComponentTransfer>
</filter>
<filter id="colorWhite" color-interpolation-filters="sRGB">
    <feComponentTransfer>
        <feFuncR type="table" tableValues="1.5 2"/>
        <feFuncG type="table" tableValues="1.5 2"/>
        <feFuncB type="table" tableValues="1.5 2"/>
    </feComponentTransfer>
</filter>
<path id="2" opacity="0.3" d="M341.75,73.625c-0.375,2.25,0.923,6.688,2.298,10.938c0.5,5.375-1.25,8.5-3.75,9.375
	c-10.375,11.125,0.451,17.697,0.451,17.697s9.875,6.25,6.5,11.5s-1.75,13.375-1.125,18.375s-3.25,11.75-4.375,17.083
	c-42.75-4.667-44.083,0.083-55,0s-10.5-6.25-10.917-12.833c-11.25-9.5-1.17-13.44-0.222-17.927c6.417-13-1.362-21.136-2.482-28.935
	c-1.058-7.363,1.855-10.639,1.855-10.639s1.439-2.697,1.502-7.509c0.023-1.782-0.25-7.124-0.25-7.124L341.75,73.625L341.75,73.625
	L341.75,73.625z"/>
<path id="3" opacity="0.3" d="M398.923,74.125c0,0,7.659,7.884,4.826,12.634s-6.083,14.667-4.583,18.667
	s1.583,11.083,8,15.917c6.417,4.833,5.333,3.167,6.083,6.917s0,7.083,0,7.083s-62.146,5.213-67.28,4.982
	c-0.757-7.136-1.406-8.993-0.769-11.489c0.547-2.139,0.896-3.622,2.369-6.286c0,0,1.225-2.187-0.734-5.113
	c0,0-1.979-2.848-4.283-4.502c-2.306-1.654-7.298-4.84-6.691-11.873c0.023-1.491,2.217-4.927,4.438-7.125
	c1.215-0.738,2.722-2.443,2.875-2.625c0.346-0.41,1.097-1.814,1.063-5.688c-0.029-1.471-0.734-2.626-0.99-3.405
	c-0.484-1.474-2.021-7.752-1.302-8.595L398.923,74.125"/>
<path id="4" opacity="0.3" d="M398.923,74.125h86.521l-0.063,56.917c0,0-1.104-2.708-10.757-2.783
	c-3.782-0.029-10,2.75-11.875,5.5s-13.375-4-15.125-5s-12.375-0.125-14.25,0.875c-2.25-0.5-11.125-8.875-14.25-8
	s-8.983,0.853-10.741,0.614c-4.189-2.706-7.397-6.811-9.384-17.662c-0.182-2.639-1.309-3.14,3.033-14.421
	c0.265-0.597,1.953-2.93,2.313-5.618C404.646,82.295,402.647,78.408,398.923,74.125z"/>
<path id="5" opacity="0.3" d="M485.443,74.125h42.268c0,0-2.337,5.234,8.663,5.36c5.375,1.136,12.25,1.984,7.5,12.841
	c-6.875,4.545-12.375,7.115-14.25,9.387s1.625,4.451,3.75,5.551s3.967,1.338,3.125,11.431c-1.517,18.213-1.706,10.42-13.25,8.574
	c-15-2.399-19.625,5.482-23.75,7.094c-4.125,1.612-4.5,9.436-9.125,3.124s-4.992-5.943-4.992-5.943L485.443,74.125z"/>
<path id="6" opacity="0.3" d="M527.711,74.125l94.288,0.438V283.76v3c0,0-3.917-3.583-5.583-3.833
	c-1.667-0.25-8-2.167-12.833,5.5c-4.583,0.5-13.75-0.917-16.917,2.167c-3.167,3.083-6.167,7.083-14.083,0s-24.5-9.083-8.083-11.333
	c9.083,1.083,9.583,2.167,18.167-0.667c5.25-0.417,13.25-0.333,18.75-7.583c3.5-3.25,8.083-4.167,6.5-15.167
	c-2.417-8.083-5.667-17.333-8.5-21.833c-1.583-4.167-7.75-10.083-4.167-23.083c4.5-7.083,3.667-7.75,11.167-13.833
	c1.333-7.917,3.667-12.25-0.167-22.25c-3.833-10-3.667-12.167-18.667-17.917c-2-0.583-7.583-2.333,1-3.583
	c5.75-1.833,12.083-4,7.75-9.5c-0.667-1.333-1.75-0.583-10.5-2.417c-8.75-1.833-6.833-1.167-20.667-15.5
	c-2.917-3.333-4.917-9.167-14-9.083c-9.083,0.083-13.793-5.426-15.139-7.013c-1.345-1.587-7.263-3.981-6.833-5.9
	c0.43-1.92-0.607-2.534,13.348-10.435c1.332-0.86,2.612-1.777,2.701-8.673c-0.813-1.656-1.531-3.372-5.2-4.217
	c-2.41-0.583-6.734-1.04-9.015-1.484C528.749,78.676,526.711,76.375,527.711,74.125z"/>
<path id="7" opacity="0.3" d="M206.999,134.759v77.333c0,0,12-0.167,31.333,1.5s31.833,2,44.167,1.333
	c8.5-0.5,16.878-2.5,26.522-2.333c1.145-7.833,0.915-36.708,4.978-45.896c0,0,3.937-9.533,3.188-10.02
	c-3.367-0.13-11.938-0.855-26.938,1.77c-3.938,0.138-13.052,1.229-13.995-7.386c-0.165-1.361-0.422-5.302-0.422-5.302
	s-2.729-2.402-4.25-4.576c-0.823-1.497-1.283-2.218-1.386-3.321c-3.762,0.135-31.579,0.767-42.326-1.262
	c-5.235-0.613-20.247-2.091-20.872-2.341C206.999,134.759,206.999,134.759,206.999,134.759z"/>
<path id="8" opacity="0.3" d="M309.021,212.593c0,0,18.478-1.667,34.561-1.917s1.667,0,1.667,0s-0.167-4.917-1.083-7.5
	c-0.917-2.583-3.167-21.833-0.333-25c1.25-3,2.75-13.333-2.083-19.583c-1.804-0.194-24.562-1.915-24.562-1.915
	s-2.552,9.702-3.409,10.56c-3.703,3.703-4.485,42.688-4.757,45.688"/>
<path id="9" opacity="0.3" d="M343.379,153.299c0,0,3.891-8.827,2.589-12.975c2.354-0.048,67.28-4.982,67.28-4.982
	s2,1.895,2.417,4.989c-0.167,2.928-1.25,2.094,2.667,9.928c0.167,1.75-0.583,14.667-1.5,17.583c0.167,2.333,3.5,11.167-1,17.75
	s-5.25,8.083-1.333,17c0.75,3.167,0,5.083,9.083,14.417c-2.333,1.25-7.25,0.083-15.833-6.5c-4.167-1.167-10.333-5.25-24.75-1.5
	s-33.5,1.083-37.75,1.667c-0.083-1.375-0.135-5.589-1.441-9.003c0,0-2.507-16.791-0.938-21.04s3.193-9.499,1.631-15.936
	c-0.631-2.163-1.813-5.333-2.75-6.104C342.062,157.572,343.379,153.299,343.379,153.299z"/>
<path id="11" opacity="0.3" d="M491.14,138.46c0.871,0.733,1.582,1.633,2.59,1.377c0.687-0.175,1.511-0.886,2.619-2.55
	c1.45-1.726,1.096-1.965,7.063-5.397s9.846-6.973,24.299-3.51c3.806,1.637,6.681,3.506,7.313,0.963
	c0.633-2.543,2.766-16.208,1.004-19.513c0,0,2.077,2.231,2.832,2.814s5.308,4.551,13.141,4.209c3.256,0.427,5.603,0.258,9.479,4.28
	c1.226,1.52,3.864,5.407,6.828,8.069s3.628,4.457,6.441,6.726c1.247,1.21,2.58,2.49,3.461,3.027
	c0.882,0.537,2.564,1.289,3.203,1.464c0.64,0.175,8.104,1.939,10.221,2.057c1,0.143,4.105,0.476,4.545,1.109
	c0.438,0.634,0.29,0.422,0.438,0.634c0.148,0.212,1.505,2.155,1.07,3.64c0,0-0.324,1.725-3.005,3.136c0,0-3.14,1.494-6.099,2.349
	c0,0-3.376,0.039-4.636,1.665c0,0-11.072-2.811-16.135-2.248c0,0-4.75,1.438-10.813,8.5c0,0-7.813,6.125-16.75-9.75
	c-1.563-2.125-3.813-4.063-6.688-3.063c0,0-2.813,1.375-4.625-5.688c0,0-1.438-5.563-6.438,1.563
	c-5,7.126-11.875,11.813-11.875,11.813s-2.813,4.563-4.5,8.75c0,0-8.063,5.063-12,1.25c0,0-2.75-2.875,0.25-9.125
	c0,0,1.063-2.125,0.813-7.688C494.499,144.259,488.863,135.66,491.14,138.46z"/>
<path id="1" opacity="0.3" d="M206.937,134.259c0,0,29.463,3.448,35.873,3.602c6.41,0.153,25.735-0.062,27.372,0.001
	c0.062-1.221,0.256-2.64,3.297-6.436c0.975-1.499,4.924-7.468,4.621-13.426c0.002-2.623-0.268-6.926-3.56-14.209
	c-0.848-2.403-2.361-5.468-1.056-12.417c0.554-1.515,0.692-2.241,1.499-3.116c0.032-0.85,1.367-4.057,1.502-7.508
	c0.123-3.145-0.33-6.568-0.25-7.124c-68.375,0-69.237-0.001-69.237-0.001L206.937,134.259z"/>
<path id="10" opacity="0.3" d="M408.382,122.248c0,0,4.18,0.692,11.606-0.649c0,0,2.11,0.293,6.461,3.428
	c0,0,6.371,4.824,6.925,4.606c1.563-0.476,5.895-1.505,12.427-1.253c1.218,0.169,1.214-0.032,5.956,2.652
	c4.741,2.684,8.508,3.575,9.896,3.338c0,0,0.644,0.275,1.62-1.252c0,0,2.068-2.421,8.271-4.203c0,0,4.081-2.119,12.205,0.758
	c0,0,1.733,1.004,2.921,3.115c1.188,2.111,1.443,0.734,6.012,9.446c0,0,4.688,6.857,1.472,15.253c0,0-2.045,4.099-0.787,7.279
	c0,0-0.139,1.815,3.436,2.685c0.322,3.87,0.886,5.182-1.678,14.182c0,0-0.188,20.063-0.063,23.438s0,5.125,2.313,10.063
	c0,0,6.625,5.25-1.875,12.438c0,0-11.5,5.75-17.063,8.813c0,0-13.813,4.375-25.813-2.125c0,0-6.813-8.313-17.438-12.813
	c0,0-5.708-1.063-11.604-4.438c0,0-4.042-3.588-7.063-8.45c0,0-1.439-1.284-1.813-4.959c0,0-0.945-3.245-1.597-4.397
	c0,0-1.814-3.193-0.775-7.485c0,0,0.941-2.984,3.407-5.993c0,0,3.891-4.137,1.907-13.698l-0.816-4.185c0,0,1.387-6.008,1.234-10.337
	c0,0,0.465-6.846,0.266-7.246c-0.198-0.4-2.922-4.655-2.922-7.331c0-1.312,0.491-2.347-0.226-4.492c0,0-0.842-2.072-1.937-3.093
	c0,0,0.811-3.256,0.046-6.842c0,0-0.204-2.773-1.288-3.595L408.382,122.248z"/>
<path id="12" opacity="0.3" d="M500.185,167.311c0,0,2.471-0.27,5.939-2.427c0,0,2.875-6.344,4.5-8.75
	c0,0,7.226-4.855,12.862-13.115c0,0,3.501-4.756,5.335-0.602c0,0,0.793,3.471,2.157,5c0,0,1.187,1.794,2.916,0.927
	c0,0,3.423-1.402,6.639,3.663c0,0,4.412,8.38,10.335,10.087c0,0,0.162,7.897,0.145,14.039c-0.008,2.6-0.047,4.886-0.145,6.126
	c-0.327,4.167-5.411,7-1.869,12.792c0,0-0.042,4.625-9.25,7.25c0,0-4.5-2.584-6.563,1.468c0,0-7.313,0.803-23.313-1.885
	c0,0-5.75-1-13.813,5.375c0,0-0.926,0.368-0.828,1.12c0,0-0.414-25.798-0.199-26.495c0.215-0.697,2.307-8.497,2.031-9.624
	c0,0,0.036-3.158-0.265-4.809C496.801,167.452,499.453,167.238,500.185,167.311z"/>
<path id="13" opacity="0.3" d="M560.073,175.072c0,0,10.65-0.906,11.65,36.844c0,0,0.075,13.672-7.8,20.047
	c0,0-1.9,2.648,0.85,13.023c0,0,1.113,4.387-1.637,8.262c0,0,1.118,5.131-0.757,8.381s-5.753,5.565-6.628,10.815
	c0,0-1.586,6.315-1.336,8.315h3.583c0,0,1.961-1.073,6.314-1.474c0,0,3.853,0.376,9.77,1.113c0,0,2.247,0.312,7.957-1.601
	c0,0,3.304-0.175,8.777-1.148s9.339-4.881,10.302-6.26c0,0,3.393-3.087,4.845-4.275c0,0,2.625-2.189,2.205-8.98
	c0,0,0.44-1.536-2.619-9.724c0,0-4.54-13.076-8.338-18.634c0,0-4.306-6.424-2.843-14.575c0,0,0.462-3.025,0.843-4.139
	c0,0,3.569-6.102,4.145-6.919c0,0,1.601-2.873,7.059-7.051c0,0,3.092-12.83,1.4-17.098c0,0-3.556-15.287-9.139-17.793
	c0,0-7.046-4.211-13.486-6.119c0,0-1.213-0.494-1.243-1.076c0,0-13.343-3.339-16.624-2.065c0,0-5.546,2.668-9.914,7.846
	c0,0-1.879,2.515-6.54,1.305c0,0,0.598,11.478,0.146,13.478C551.014,175.572,556.022,174.759,560.073,175.072z"/>
<path id="18" opacity="0.3" d="M495.234,208.379c0,0,3.409-4.441,11.149-6.281c0,0,1.483-0.704,8.528,0.562
	c0,0,14.42,1.952,18.274,1.109c0,0,1.729-3.968,6.563-1.468c0,0,8.417-1.875,9.25-7.25c0,0-3.129-3.637,0.904-9.777
	c0,0,1.209-2.078,0.965-5.703l0.146-4c0,0,10.95-3.174,13.918,2.879c0,0,6.754,9.069,6.599,28.564c0,0,2.321,12.777-6.042,23.48
	c0,0-2.655,1.896-2.197,4.706c0,0-0.024,3.005,0.548,5.68c0,0,0.372,1.852,0.544,2.551c0,0,1.563,4.755-0.457,8.495
	c0,0-1.363,3.584-10.552,4.272c0,0-13.375-1.562-20.75-5.812c0,0-15.188-0.5-21,1.938c0,0-8.063,1.875-9.25,0.25
	c0,0,2.5-16.5-7.875-22.563l-2.146-0.855c0,0,2.646-0.895,5.177-3.489c0,0,2.792-3.094,2.302-6.469c0,0-0.664-2.613-2.342-3.963
	C497.49,215.234,495.406,211.686,495.234,208.379z"/>
<path id="14" opacity="0.3" d="M206.999,211.759v0.333v66.667c0,0,9.625,3.125,24.875-2c0,0,15.75-0.875,24.875,2.25
	c0,0,15,2.5,15.625-4.25c0,0,2.25-4.25,0-14.75c0,0,0.75-21,1-28c0,0-1.127-16.756-1.25-16.761s0.123,0,0.123,0
	S216.374,211.884,206.999,211.759z"/>
<path id="15" opacity="0.3" d="M272.247,215.248c0,0,48.367-4.297,71.872-4.58c0,0,1.755,1.852-2.37,6.784
	c0,0-2.875,2.682,1.125,5.807c0,0,1.875,15.875-2.625,26.25c0,0,0,9.25,2.25,20c0,0,1.5,11.25,2.5,15.75c0,0-4.75-1.625-7.75-1.375
	c0,0-49.25-0.25-54.875-2.375c0,0-8.25-2.5-9-3.5l-2.088-0.873c0,0,2.296-2.294,2.046-9.961c0,0-0.129-3.69-0.814-6.47
	c0,0,0.355-22.113,0.647-22.863C273.166,237.843,273.433,227.611,272.247,215.248z"/>
<path id="16" opacity="0.3" d="M343.016,225.737c0,0,0.873,9.66-1.294,20.105c0,0-1.492,3.226-1.486,3.723
	c0,0,0.304,11.867,3.906,31.128l0.575,3.22c0,0,17.113,1.27,28.863,2.52c0,0,19.001-17.753,35.001-8.17c0,0,4.362-4.252,5.612-5.418
	c0,0,0.806,0.498,0.806-1.835v-54.25v-1c0,0-9.543-10.676-27.079-7.792c0,0-14.922,3.632-24.046,3.087
	c0,0-17.697-0.728-19.755-0.387c0,0,1.417,2.911-2.164,6.532c0,0-2.393,2.556-0.206,4.995
	C341.749,222.195,343.281,223.402,343.016,225.737z"/>
<path id="17" opacity="0.3" d="M414.999,228.759v-13c0,0,6.979,2.875,8.583,1.25c0,0,3.548,2.446,12.608,4.879
	c0,0,8.745,4.017,15.558,11.381c0,0,6.394,5.905,20.322,4.322c0,0,5.026,0.183,10.384-3.356l9.425-4.841
	c0,0,3.947-0.224,7.503,5.414c3.556,5.638,3.492,13.048,3.149,16.28c0,0,1.532,11.67-8.718,21.732c0,0-8.813,5.938-24.875,2.625
	c0,0-14.563-5.25-21-8.438c0,0-11,6.375-18.625,13.313c0,0-10.292,3.374-19-0.625c0,0-1.648-0.618-1.73-1.434l5.043-4.941
	c0,0,1.125-0.563,1.375-1.188v-43.373H414.999L414.999,228.759z"/>
<path id="19" opacity="0.3" d="M206.999,278.759v77.397c0,0,8.611-7.156,43.361-4.406c0,0,22.875,2.938,27.125,0.125
	c0,0-6.5-15.5,1.875-22.813c0,0,8.25-8.678,6.125-12.433c0,0-3.563-4.449,2.313-6.477c0,0,2.438-0.465,2.625-3.715
	c0.188-3.25,3.875-7.313,7.75-9c0,0,9.5-6.563,7.875-11.75l0.188-2.355c0,0-16.572-0.458-21.817-1.364
	c-1.507-0.297-8.213-2.305-9.813-3.21c0,0-2.142-1.174-3.318-1.623c0,0-2.426,2.864-9.301,2.364c0,0-3.867,0.244-9.965-1.69
	c0,0-11.32-1.854-20.146-1.051C231.874,276.759,220.201,281.456,206.999,278.759z"/>
<path id="20" opacity="0.3" d="M306.235,283.333c0,0,29.112,0.727,31.014,0.551c0,0,3.098-0.074,7.75,1.375
	c0,0.199,0,0.199,0,0.199s0.778,21.792,1.361,28.042c0,0,5.833,3.167,9.917,5.333c0,0-19,15.75-22.5,33.083
	c0,0-3.75,8-17.167,14.917c0,0-6.501,12.5-10.375,24.333c0,0-5.875,7.417-14.791,1.667c0,0-26.75,1.417-20.75-7.917
	c0,0,2-4.917,1.5-9.75c0,0,6.083-3.583,4.667-9.583s0.625-13.708,0.625-13.708s-4.833-11.477-0.896-19.176
	c0,0,12.505-13.067,8.388-16.883c0,0-2.325-3.76,2.819-5.663c0,0,2.916-1.02,2.739-4.503c0,0,2.198-5.775,7.636-8.212
	c0,0,9.354-7.072,8.063-11.005C306.235,286.433,305.859,285.415,306.235,283.333z"/>
<path id="21" opacity="0.3" d="M344.717,283.913c0,0,0.271,0.82,0.282,1.346l1.361,28.241c0,0,8.875,4.75,9.917,5.333
	c0,0,5.958,0.167,7.333,9.292c0,0-1.125,4.125,5,7.625c0,0,13.5,15.375,14.625,16.125s0,0.375,0,0.375s25.375-0.125,26.375-2.125
	c0,0,7.375-6,6.625-8.25c0,0-3.875-36,3.5-40s11.375-3.825,9.75-20.225l-0.525-1.224c0,0-8.912,2.448-14.412,0.667
	c-5.5-1.781-5.429-1.853-5.965-2.833c0,0-9.346-7.246-25.389,1.455c0,0-7.876,4.692-9.501,6.717
	C373.693,286.433,346.864,283.951,344.717,283.913z"/>
<path id="22" opacity="0.3" d="M429.845,287.5c0,0,0.048-5.48-0.886-7.073c0,0,16.39-12.829,18.979-13.42
	c0,0,17.763,8.147,22.604,8.742c0,0,8.048,1.769,13.98,0.22V309c0,0-16.328,11.417-19.995,13.75c0,0-1.667,4,3.667,11.5
	c0,0,3,3.75-7.583,3.667c0,0-10.083,5.25-18-1.583c0,0-8.417-10-16.167,0.75c0,0-5.906,6.04-10.286,4.02
	c0,0-2.868-31.579,2.334-38.133c0,0,4.369-2.72,7.202-4.137C425.693,298.833,430.412,296.667,429.845,287.5z"/>
<path id="23" opacity="0.3" d="M484.522,275.969V309l-19.995,13.75c0,0,6,10.333,17.167,13.833c0,0,5.5,1,8.333,6.083
	c0,0,4.417,4.75,17.583,4.083s35.667,1.25,39.333-5.833c0,0,0.75-14.083,7.583-15.583c0,0,1.5,0.167,1.333-4
	c0,0,1.195-29.982-1.444-40.574c0,0-0.507-9.55,5.053-15.405c0,0,5.881-4.746,3.345-12.092c0,0-6.041,5.203-18.019,1.407
	c0,0-9.073-2.065-12.171-4.284c0,0-14.15-0.383-20.124,1.615c0,0-6.035,2.02-9.815,0.843c0,0-0.404,10.513-5.781,16.459
	C496.903,269.303,493.101,275.771,484.522,275.969z"/>
<path id="24" opacity="0.3" d="M554.416,280.759h3.583c0,0-1.206,0.747,0.187,1.594c0,0,14.088,6.473,17.444,10.591
	c0,0,4.975,3.736,8.853-0.26c0,0,2.811-4.018,8.752-4.082c0,0,8.385,0.25,10.349-0.176c0,0,3.858-6.587,10.85-5.819
	c0,0,3.572-0.063,6.469,3.196l1.098,1.197v78.625v2.563c0,0-16.95,0.875-23.7-1.875c0,0-6.813-7.125-13.438-0.125
	c0,0-6.938,0.313-5.875-7.125c0,0,2.25-10.75-10-5.688c0,0-11.688,2.188-11.375-3.938c0.313-6.126-2.25-17.021,2.25-19.271
	c0,0,5.667-6.921-3.083-5.627c0,0-0.966-0.464-0.909-2.79c0.058-2.326,0.648-29.064-0.222-31.824
	C555.646,289.926,554.973,281.601,554.416,280.759z"/>
<path id="25" opacity="0.3" d="M206.999,356.156c0,0,9.154-8.211,50.509-3.653c0,0,15.887,1.746,19.979-0.629
	c0,0-1.537,7.162-1.081,10.435c0,0,0.172,2.966,0.564,3.813c0,0,0.909,3.993-2.99,7.654c0,0-1.076,0.899-1.785,1.389
	c0,0,0.615,4.945-2.016,10.702c0,0-0.529,1.091-0.361,2.257c0,0-16.332,0.167-22.707,4s-5.125,4.833-10.542,5.375
	c0,0-5.792,7.292-5.958,10.292l-6,0.25c0,0,0.875,8.667-1.667,13.667l-15.944-0.208V356.156L206.999,356.156z"/>
<path id="26" opacity="0.3" d="M222.943,421.708c0,0,2.385-5.958,1.667-13.667l6-0.25c0,0,0.042-2.604,5.958-10.292
	c0,0,3.353,0.362,6.963-2.991c0,0,4.639-5.35,20.203-6.086l6.083-0.298c0,0,0.739,3.796,10.6,4.44c0,0,7.217,0.58,11.028,0.268
	c0,0,3.499,2.67,8.333,2.043c0,0,8.25,5.374,9.5,6.957c0,0-2.625,5.917-4.333,6.708c0,0-2.583-0.208-2.167,7.125
	c0,0-0.25,1.958-5.167,2.5c0,0-1.625,1.333-2.292,3.542c0,0-20.208-1.667-19.958,2.5c0,0-1.438,2.573-9.906,2.354
	c0,0-10.375-0.375-11.813,2.344c0,0-9.892-1.875-11.399,0.125c0,0-20.424,0.219-20.424-2.865L222.943,421.708z"/>
<path id="27" opacity="0.3" d="M299.777,394.876c0,0,2.833-0.003,6.458-3.71c0,0,2.417-8.708,10.375-24.333
	c0,0,11.839-5.604,16.94-14.489c0,0,0.173-0.126,0.64-2.203c0,0,3.073-14.556,21.84-31.098l0.247-0.209c0,0,3.964,0.166,6.195,5.159
	c0,0,0.655,1.966,1.078,4.508c0,0-0.149,3.077,1.917,4.828c0,0,1.015,1.23,3.031,2.357c0,0,11.523,13.245,15.207,16.561
	c0,0,3.279,5.003-0.408,10.878c0,0-0.771,14.375,1.396,21.875c0,0,2.854,11-9.271,14.938c0,0-8.896,0.479-10.229-4.021
	c0,0-4.75-0.833-10.917,2.833c0,0-7.167-1.167-7.333,4.833c0,0-6.5,0.917-10.667,2.5c0,0-8.75-2.167-11.75,1.417
	c0,0-5-0.417-9.75-3.917l-5.5-1.75C309.277,401.833,304.007,397.503,299.777,394.876z"/>
<path id="34" opacity="0.3" d="M269.277,447.167c0,0,1.758-12.436,1.046-20.843c0,0,4.954-0.616,5.244-2.859
	c0.96-2.798,16.21-2.048,19.752-1.756c0,0,1.631-3.963,3.086-3.648c0,0,3.789-0.435,4.372-2.394c0,0-0.292-7,2.167-7.125
	c0,0,1.838-1.024,3.981-5.949l0.352-0.759c0,0,4.143,1.34,5.363,1.706h0.137c0,0,4.01,3.241,9.75,3.96c0,0,2.604-3.521,11.75-1.417
	c0,0,7.094-2.261,10.667-2.5c0,0-0.375-5.677,7.333-4.833c0,0,5.375-3.417,10.917-2.833c0,0-0.009,2.123,3.86,3.26
	c0,0-3.924,0.365-8.86,3.74c0,0-1.625,5.563-7.75,6.25c0,0-3.917,1.604-4.667,3.167c-1.661-0.153-5.249,0.597-7.25,4.75
	c0,0-7.587,7.68-1.167,11.333c0,0,7.896,0.979,7.083,7.667c0,0-1.521,9.229-8.521,14.667c0,0-8.813-0.563-10.25,6.875
	c0,0,1.125,2.75-4.375,8c0,0,1.438,5.5-3.125,9.438c0,0-3.063,1.438,1.063,5.875c4.126,4.438,0.25,0,0.25,0s2.063,5.875-3.5,7.375
	c0,0-5.042,3.521-9.208,8.854c0,0-9.604,8.458-11.354,11.896c0,0-28.229,1.5-28.146-3.688c0.083-5.188,0-0.188,0-0.188
	s-0.104-19.063,1.771-21.438c0,0,2.938-4-3.688-16.25c0,0-1.75-5.688,4.125-11.625C271.485,455.875,272.382,452.271,269.277,447.167
	z"/>
<path id="28" opacity="0.3" d="M383.954,381.469c0,0-1.313-11.781-0.688-17.781c0,0,0.062-1.038,1.031-2.375
	c0,0,2.03-5.031-0.592-9.066c0,0,23.436-0.528,24.911-1.574c0,0-3.131,13.765-0.944,22.202c0,0,1.5,9.244,6.25,9.402
	c0,0-2.375,9.91-0.313,13.16c0,0,5.625,10.688,0.313,21.438c0,0-0.875,2.938-3.125,3.313c0,0-8.499,0.625-12.249,5.313
	c0,0-6.375,4.313-12.813,5.5c0,0-29.938,24.063-30.875,25.625c0,0-3.813-0.125-4,1.125c0,0,1.25,5.5-3.188,8.75
	c0,0-7.5,7.438-7.563,13.625c0,0-2.313,9.75-7.438,11c0,0-15.484,1.443-15.992-2.216c0,0,5.041-1.649,4.673-5.342
	c0,0,0.152-2.047-0.827-2.859c0,0-3.667-3.875-0.854-5.646c0,0,4.646-3.646,3.125-9.438c0,0,5.021-4.292,4.375-8
	c0,0,0.813-7.125,10.25-6.875c0,0,6.021-4.27,8.521-14.667c0,0,0.854-3.583-2.744-6.03c-0.512-0.348-1.214-1.366-3.839-1.637
	c-2.188-0.917-3.578-3.823-1.61-7.478c0.813-1.579,2.776-3.855,2.776-3.855s1.193-2.536,2.943-3.427
	c0.403-0.338,2.5-1.563,4.307-1.323c0.177-0.63,2.818-2.292,2.818-2.292s4.203-1.166,6.265-2.541c0,0,3.002-2.563,3.336-4.583
	c1.583-1.083,4.907-3.002,8.357-3.74c0,0,3.253,1.12,6.487,0.722c0,0,11.696-2.398,9.603-14.742l-0.5-2.594"/>
<path id="29" opacity="0.3" d="M410.374,349.481c0,0,4.211-3.382,5.658-6.091c0,0,0.396-1.024,0.174-1.801l-0.048-0.485
	c0,0,1.803,0.8,3.457,0.223c0,0,3.736-0.992,6.829-4.243c0,0,4.128-6.554,10.21-4.663c0,0,2.783,0.504,5.859,3.802
	c0,0,2.799,2.735,7.063,3.402c0,0,4.51,1.18,10.96-1.67c0,0,4.669,0.267,7.257-1.25c0,0,1.441-0.899,0.401-2.454
	c0,0-4.96-7.238-3.729-11.307c0,0,0.018-0.25,0.252,0.113c0,0,5.151,8.005,11.794,11.266c0,0,3.304,1.858,5.843,2.424
	c0,0,3.403,1.063,5.424,3.049c0,0,1.386,1.349,2.251,2.871c0,0,3.453,3.55,12.831,4.088c0,0,2.419,4.663,2.419,9.83
	c0,0,2.583,19.75-3.917,23.333c0,0-12.178,5-16.839,12.75c0,0-7.994,10.583-12.494,10.583c0,0-12.083,0.417-13.417,0
	c0,0-13-24.333-23.417-22c0,0-13.809-2.25-18.988,0.667l-2.281,0.361c0,0-6.389-0.475-6.893-13.376c0,0-0.324-13.223,1.586-18.229
	C408.617,350.673,409.305,350.961,410.374,349.481z"/>
<path id="31" opacity="0.3" d="M502.858,346.754c0,0,2.523,4.538,2.419,9.83c0,0,1.377,13.329-0.738,18.748
	c-2.116,5.419-3.878,4.882-4.411,5.135c0,0-7.771,3.378-13.315,9.176c0,0-2.479,2.881-3.09,4.041c0,0,3.325,3.067,3.263,8.256
	c0,0-1.75,11.5-1.563,13.875c0,0-0.063,6.063,4.813,5.999c0,0,20.813-0.5,33.313-0.375c0,0,15.063,1.813,16.625,2.313
	c0,0,16.875,0.188,18.063-3.938c0,0,9.313-4,5.438-13.25c0,0-9.938-10.813-5.375-17.75c0,0,5.063-4.125,0.25-7.813
	c0,0,0.875-6.813-0.125-10.5c0,0-3.019-12.934-0.665-19.748c0,0-0.288-1.037-0.124-2.004c0,0-0.072-4.435-0.438-9.154
	c0,0-0.699-7.504,2.437-9.299c0,0,3.355-3.422,1.479-5.296c0,0-1.22-0.982-3.97-0.459c0,0-0.7,0.068-1.101-1.158l-0.137-0.724
	c0,0-0.087,1.42-0.581,2.131c0,0-0.195,0.631-1.267,0.671c0,0-3.172,0.494-5.591,7.251c0,0-1.378,4.527-1.523,8.204
	c0,0-1.791,4.77-14.407,5.199C532.536,346.116,509.355,347.133,502.858,346.754z"/>
<path id="30" opacity="0.3" d="M412.776,391.624c0,0,0.462-8.503,1.148-9.345c0,0,2.436-0.088,3.779-0.996
	c0,0,4.949-1.906,17.49-0.032c0,0,3.271-1.141,8.188,2.554c0,0,8.313,6.483,15.052,19.12c0,0-0.326,0.478,2.364,0.493
	c0,0,10.445-0.07,12.066-0.275c0,0,4.345-1.024,10.858-9.459c0,0,4.682,4.036,2.754,11.771c0,0-2.766,12.846,0.466,14.977
	c0,0,0.723,0.752,1.252,0.962c0.529,0.209-4.209,4.17-3.084,12.42c0,0-1.563,7.938-0.25,13.125c0,0-0.938,5.313-7.125,6.438
	c0,0-14.375,0.188-19.813-6.188c0,0-3.938-12.063-4.063-16.188c0,0,0.5-4.313-4.625-5.25c0,0-7-0.25-12.375-3.625
	c0,0-5.313-0.063-8.25,1.375c0,0-6.438,1.5-8.813-3.625c0,0-4.563-4.891-4.688-5.914c0,0,1.836-7.497,0.324-13.354
	C415.435,400.607,412.068,392.873,412.776,391.624z"/>
<path id="32" opacity="0.3" d="M556.997,360.925c0,0-0.589-7.044,0.763-10.172c0,0,0.5,2.784,5.467,2.953
	c0,0,4.313,0.156,6.139-0.484c0,0,4.647-1.967,7.341-0.782c0,0,3.089,1.056,2.31,6.454c0,0-1.072,3.676,1.532,5.849
	c0,0,1.354,1.466,4.313,1.445c0,0,2.886-4.032,8.443-2.798c0,0,3.014,0.944,4.869,2.798c0,0,5.133,2.979,23.826,2V419v1.125
	c0,0-15.931,1.375-16.639,1.167s-10.583-7.292-17-2.208c0,0-10.708,2.625-19.333,0.875c0,0-8.551-0.355-7.609-2.282
	c0,0,4.966-3.807,2.559-10.325c0,0-0.088-0.459-0.933-1.518c0,0-8.453-9.891-5.276-16.05c0,0,0.268-0.732,0.533-0.97
	c0,0,4.017-3.09,1.456-6.64c0,0-0.56-0.756-1.206-1.174c0,0,0.813-7.916-0.125-10.5C558.425,370.501,556.76,362.184,556.997,360.925
	z"/>
<path id="33" opacity="0.3" d="M206.999,421.5V480v1c0,0,22.736,4.125,31.111-0.875c0,0,6-2.681,15.375,3.097
	c0,0,14.065,0.812,16.72,3.295c0,0,0.365-2.424,0.989-3.032c0,0,1.863-3.085-1.673-11.535c0,0-1.703-3.824-2.161-4.449
	c0,0-1.833-5.792,4.125-11.625c0,0,0.751-3.833-2.208-8.708c0,0,1.801-16.102,1.046-20.843c0,0-3.243,0.408-5.15,0.229
	c0,0-7.327-0.293-10.491,1.405c0,0-0.788,0.508-1.039,0.947c0,0-10.047-1.876-11.399,0.125c0,0-16.53,0.189-19.863-2.045
	c0,0-0.712-0.224-0.507-1.037l1.069-4.241L206.999,421.5z"/>
<path id="39" opacity="0.3" d="M206.999,481v87c0,0,5.111,1.833,7.278-4.167c0,0,1-6,10.667-5.667
	c0,0,17-1.917,21.583,1.167c0,0,6.5-0.417,10.5-3.667c2.494-0.39,5.098-0.426,7.608-0.225c2.08,0.167,4.175,0.53,6.124,1.298
	c0.974,0.383,1.719,1.031,2.142-0.267c0.343-1.053,0.09-2.329,0.043-3.408c-0.069-1.569-0.498-3.071-0.588-4.648
	c-0.172-3.04-0.021-6.039-1.309-8.729c-1.453-3.036-2.604-5.768-2.604-9.187c0-3.003,0.817-5.838,1.352-8.685
	c0.466-2.477,0.948-5.009,0.815-7.561c-0.082-1.575-0.231-3.046-0.59-4.589c-0.265-1.133-0.53-2.269-0.744-3.415
	c0,0,0.125-10.151,0.242-12.203c0,0,0.364-7.139,0.686-7.531c0,0-3.511-2.571-16.72-3.295c0,0-6.735-4.44-13.086-3.628
	c0,0-1.902,0.313-2.289,0.531c0,0-3.097,1.983-9.252,2.319C228.858,482.444,218.86,483.125,206.999,481z"/>
<path id="40" opacity="0.3" d="M269.286,505.546c0,0,0.148,1.545,0.332,2.359c0.185,0.813,0.824,3.595,0.917,5.188
	c0,0,0.184,2.504,0,4.012c0,0-0.855,6.169-1.733,9.657c0,0-1.168,4.824,1.102,10.392c2.27,5.566,2.175,4.018,2.421,10.6l0.12,1.584
	c0,0,9.834,0.227,13.521,2.247c3.688,2.021,7.303,0.073,14.084,6.354c0,0,4.25,3.563,11.219,3.844c0,0,8.375-1.156,13.813,1.906
	c0,0,5.563-0.125,12.031-4.813c0,0,10.125-1.094,18.75,0.063c0,0,2.75-3.146,1.583-8.271c0,0-0.292-4.292,0.458-6.417
	c0,0,0.583-4.333-3.292-6.458c0,0-10.125,0-11.292-7.042c0,0-0.958-9.542,0.542-13.75c0,0-0.24-4.866,0.083-9.75
	c0.307-4.632,1.183-9.272,1-10.083c-0.375-1.667,0.025,0.156,0.025,0.156s0.1-5.781-7.65-6.489c0,0-3.253-0.082-4.647,0.293
	c0,0-9.196,0.682-11.938-0.063c0,0-3.598-0.393-3.964-1.832c0,0-4.99,4.036-7.865,7.777c0,0-10.625,9.744-11.479,12.056
	C297.423,509.064,270.128,510.634,269.286,505.546z"/>
<path id="35" opacity="0.3" d="M333.146,491.028c0,0,4.154-0.948,6.777-10.207c0,0,0.214-3.824,2.059-6.765
	c0,0,4.217-6.928,6.22-7.977c0,0,3.073-2.799,2.819-6.362c0,0-0.358-2.037,0.015-2.313c0,0,0.95-0.965,3.825-0.778
	c0,0,28.962-24.937,30.189-25.073c0,0,0.379-0.475,1.07-0.627c0,0,8.455-2.37,12.429-5.425c0,0,4.063-4.875,12.25-5.313
	c0,0,2.27,0.274,4.312-6.228c0,0,0.75,13.039,0,18.414c0,0-1.934,13.75,1.095,16.125c0,0,12.405,8.625,1.53,13.5
	c0,0-3.75,1.25-2.625,14.375c0,0-1.75,4.375,4.25,14c0,0,3.125,3.625-2.25,10.5c0,0-4,7.875-7.375,7.25c0,0-6.375-0.375-4.125,5.75
	c0,0,2.875,5.625,3.625,16c0,0,2.75,7.125-1,11.25c0,0-3.5,7.375-12.375-1.25c0,0-11.125-5.875-10.625-10.125
	c0,0-2.625-4.875-5.25-5.375c0,0-13.25-9.313-14.188-20.625c0,0,2.625-10.5-7.438-8.188c0,0-6.188-2.938-9.188,0.438
	c0,0-3.694,1.163-4.555-0.462c0,0-0.894-3.626-5.139-4.332C339.48,491.206,337.431,490.368,333.146,491.028z"/>
<path id="36" opacity="0.3" d="M414.899,413.961c0,0,1.4,2.193,2.245,3.169c0,0,2.257,2.373,2.442,2.745
	c0,0,0.826,2.405,4.008,3.452c0,0,3.119,0.869,5.191,0c0,0,4.781-1.494,7.864-1.202c0,0,5.235,3.319,12.742,3.701
	c0,0,4.073,0.506,4.27,4.84c0,0-0.295,1.036,0.889,5.514c0,0,1.754,8.018,2.396,8.574l0.768,2.432c0,0,3.508,4.872,14.379,5.843
	c0,0,4.791,0.617,5.684,0.346c0,0,2.564-0.499,4.626-2.438c0,0,4.313,7.874,4.624,14.938c0,0-0.125,23,2.063,23.688
	c0,0-1.5,5.813-4.5,9.188c0,0,0.688,7.563-2,7.75c-2.688,0.187-4.875,7.438-15.5,1.938c0,0-15.563-6.375-23-5.375
	c0,0-9.938-0.5-16.188,5.688c0,0-14.063,6.063-13,2.188c0,0-2.027-4.165-1.104-5.348c0,0,7.9-10.134,6.087-13.585
	c0,0-5.929-10.206-5.205-14.324l0.223-1.805c0,0-0.956-9.295,1.335-12.522c0,0,0.454-0.805,1.848-1.615c0,0,7.339-3.431,1.734-9.708
	c0,0-1.984-2.498-3.419-3.232c0,0-2.967-0.997-1.889-12.74c0,0,1.052-8.18,0.721-11.742L414.899,413.961z"/>
<path id="46" opacity="0.3" d="M483.443,700.667c0,0-10.667-51-3.667-79.333c0,0,3-2.667,3.667-21.167
	c0,0,0.333-39,1-39.333c0,0,67.833-0.833,72.667,0c0,0-10.167,12.5-10.833,24c0,0-0.833,26,1.333,30.667
	c0,0,9.833,17.5,6.833,25.167c0,0-5,11.167-4,20.833c0,0,1.333,28,2.5,31.833l0.833,8.5
	C553.777,701.833,486.943,702.5,483.443,700.667z"/>
<path id="47" opacity="0.3" d="M553.777,701.833c0,0-3.036-26.818-2.664-28.138c0,0-0.796-14.254-0.798-14.443
	c0,0-0.463-7.442,3.729-17.628c0,0,2.423-3.262-0.192-11.443c0,0,34.884,1.694,42.134-1.306c0,0,20.076-1.708,25.264-3.646V700
	v1.833H553.777z"/>
<path id="48" opacity="0.3" d="M206.999,568.264c0,0,5.997,1.24,7.492-5.137c0,0,1.45-6.389,16.1-5.406
	c0,0,13.257-0.57,17.139,1.479c0,0,6.899-0.535,8.828-3.181c0,0,11.101-1.916,14.202,0.72c0,0,1.615,0.788,1.879,0.261
	c0,0-1.028,2.437,5.785,4.437c0,0,4.875,1.5,3.938,7.313c0,0-0.438,3.563,4.188,7.5c0,0,0,4.625-2.688,12.75
	c0,0,0.875,4.188-1.813,7.625c0,0,0.875,4.375-1.625,7.25c0,0-1.188,9.75-0.5,12.25c0,0-7.375,5.438-8.75,9.063
	c0,0-2.938,2.688-2.75,4.938V631H207L206.999,568.264L206.999,568.264z"/>
<path id="49" opacity="0.3" d="M272.442,549.336c0,0,0.603,3.456,0.635,5.372c0,0-0.037,1.918-0.439,2.292
	c0,0-0.618,1.191,1.53,2.595c0,0,2.608,1.404,4.255,1.841c0,0,4.015,1.656,3.98,4.825c0,0,0.243,2.358-0.046,2.985
	c0,0,0.127,2.871,2.752,5.624c0,0,1.167,1.17,1.438,1.378c0,0-0.313,6.25-2.688,12.75c0,0,0.792,4.375-1.813,7.625
	c0,0,0.896,4.375-1.625,7.25c0,0-1.063,8.042-0.5,12.25c0,0-7.104,5.25-8.75,9.063c0,0-3.188,2.813-2.75,5.813h90.938
	c0,0,1.375-4.417-5.625-8.75c0,0-3.042-2.917,0.792-5.833c0,0,5.625-3.292,0.083-6.667c0,0-3.917-2.375-1.417-8.583
	c0,0,3.667-5.917,3.833-12.542c0,0,0.917-22.292-0.583-24.458c0,0-1.667-4.125-0.583-5.229c0,0-9.5-1.125-18.75-0.063
	c0,0-6.938,4.938-12.031,4.813c0,0-3.975-2.632-13.222-1.972c0,0-6.977,0.521-12.549-4.44c0,0-3.833-3.938-9.828-4.591
	c0,0-2.699-0.387-4.55-1.566C284.931,551.117,280.025,549.297,272.442,549.336z"/>
<path id="50" opacity="0.3" d="M359.36,631h63c0,0,10.75-6,2.625-8.5c0,0-9.375-5.188-8.688-9.438
	c0,0-3.5-9.125-0.063-15.313c0,0,6.313-5.938-0.688-10.813c0,0-2.875-4.625-2.813-9c0,0-8.688,0.875-19.625-9.688
	c0,0-7.313-4.75-13.375-4.125c0,0-10.125-1.813-19.563,1.375c0,0-3.218,0.579-3.146,1.439c0.072,0.859,0.295,5.436,0.277,8.497
	c0,0,0.128,17.879-1.502,19.877c0,0-1.764,4.744-2.76,6.246c0,0-1.963,4.182,0.646,7.342c0,0,2.302,1.749,2.677,2.304
	c0,0,2.196,2.231-1.28,4.825c0,0-6.282,3.778,1.496,8.374C356.581,624.405,360.048,627.375,359.36,631z"/>
<path id="41" opacity="0.3" d="M343.983,515.432c0,0-0.322-3.895-0.039-8.182c0.292-4.428,1.184-9.285,0.785-11.379
	c0,0,3.136,1.637,5.717-0.867c0,0,2.998-1.462,7.915,0.558c0,0,9.458-2.979,7.438,8.188c0,0-1.066,6.885,11.457,18.443
	c0,0,2.306,2.059,2.73,2.182c0,0,1.884,0.349,4.505,4.143l0.745,1.232c0,0,0.047,1.375,0.585,2.174c0,0,1.585,3.311,9.125,7.443
	c0,0,2.474,1.947,3.072,2.381c0,0,7.144,6.584,11.181-1.988c0,0,2.338-4.009,0-9.634c0,0-0.477-9.495-2.345-13.06
	c-1.868-3.565-2.573-6.972-0.439-8.112c0,0,1.563-0.93,4.025-0.817c0,0,1.308-0.115,3.115-2.031c0,0,0.009,2.333,1.345,4.833
	c0,0-0.473,1.272,1.588,1.293c0,0-1.752,14.707-0.689,24.582c0,0-1.25,17.938-0.688,19.063c0,0,4.75,5,8.75,5.625
	c0,0,1.813,1.25-1.313,5.188c0,0-7.813,10.5-9.813,11.25c0,0-9.156,0.61-19.14-9.227c0,0-4.33-3.493-9.907-4.352
	c0,0-2.233-0.72-3.655-0.258c0,0-9.466-1.695-18.506,0.977c0,0-4.145,0.8-4.499,1.861c0,0-0.212-1.725-0.584-2.773
	c0,0-1.771-4.104-0.583-5.229c0,0,2.885-3.292,1.583-8.271c0,0-0.313-3.292,0.458-6.417c0,0,0.615-4.51-3.292-6.458
	c0,0-10.011-0.138-11.255-6.84c0,0-1.161-7.754,0.505-13.952L343.983,515.432z"/>
<path id="42" opacity="0.3" d="M415.404,543.054c0,0,0.747-5.807,0.226-8.181c0,0-0.324-3.467-0.173-5.311
	c0,0,0.182-13.848,0.823-15.378l0.208-1.954c0,0,2.504,0.149,9.297-2.619l2.115-0.861c0,0,4.523-4.86,12.491-5.493
	c0,0,6.442-1.119,14.768,1.202c0,0,9.853,2.8,12.245,4.138c0,0,5.958,3.616,10.488,0.962c0,0,2.688-1.695,3.62-2.648
	c0,0,1.011-0.413,1.846-0.726c0,0,3.002,8.127,0.627,13.438c0,0,0.375,27,0.188,27.75c0,0,0.313,13.688-3.063,13.75
	c0,0-11.375,6.438-11.938,6.25c0,0-7.75-0.718-12.688-3.765c0,0-4-3.36-18.438-2.235c0,0-10.21,0.373-13.98,0.343
	c0,0-5.395-1.875-7.968-4.88l-0.988-0.962C415.112,555.876,414.782,544.108,415.404,543.054z"/>
<path id="51" opacity="0.3" d="M416.616,574.171c0,0,7.729-8.913,7.736-10.959c0,0,0.152-0.777-0.284-1.495
	c0,0,10.439-0.145,13.833-0.338c0,0,8.242-0.48,12.444,0.227c0,0,4.439,0.793,5.894,1.833c0,0,4.058,2.999,12.933,3.936
	c0,0,0.724-0.221,1.275-0.49c0,0,8.99-4.544,11.055-5.839c0,0,0.851-0.325,1.262-1.468l1.679,1.256c0,0-0.755,7.369-0.502,8.372
	c0,0-0.264,12.339-0.288,13.878c0,0-0.193,15.251-0.201,16.167c0,0-0.539,12.674-1.419,15.524c0,0-0.923,5.351-2.256,6.559
	c0,0-1.577,8.875-1.662,9.666H422.36c0,0,7.056-4.154,5.622-6.202c-1.435-2.048-2.447-1.937-3.517-2.6c0,0-8.294-4.388-8.169-9.136
	c0,0-3.349-9.454-0.204-15.039c0,0,5.024-4.887,1.803-8.8c0,0-0.913-1.352-2.35-2.288c0,0-3.058-5.432-2.809-8.684
	C412.737,578.252,416.31,574.593,416.616,574.171z"/>
<path id="37" opacity="0.3" d="M490.527,491.25l-1.438-1.688c0,0-1.524-0.799-1.788-10.722c0,0,0.525-15.019-1.082-18.097
	c0,0-2.524-8.536-3.816-9.807c0,0,3.611-3.103,2.118-5.854c0,0-0.826-4.208,0.59-11.271c0,0-0.749-7.194,3.084-12.421
	c0,0,0.541,0.796,10.578,0.246c0,0,23.563-0.402,24.63-0.246c0,0,15.583,2.03,17.417,2.36c0,0,8.628-0.026,10.377-0.744
	c0,0,3.165,2.679,3.165,9.865c0,0-1.063,48.938-0.375,50c0,0,1.938,7.625-2.625,8.813
	C551.36,491.688,500.382,494.188,490.527,491.25z"/>
<path id="43" opacity="0.3" d="M493.061,491.773c0,0,16.303,1.854,41.968,0.541c0,0,9.415-0.564,12.081,4.853
	c0,0,8,5.583,8.167,21.5c0,0,0.25,10.167-8.5,4.083c0,0-23.417-5.917-26.75-0.167c0,0-12.333,4.667-2.083,11.917
	c0,0,2.667,1.333,10.25-1.917c0,0,4.417-2.333,8.667,7.667c0,0,9,8.5,0.75,16.917c0,0-0.917,2.265-4.5,3.299
	c0,0-42.584,0.035-48.667,0.368l-1.679-1.256c0,0,1.388-2.818,1.408-12.203c0,0,0.104-26.125-0.188-27.75
	c0,0,2.705-5.584-0.627-13.438c0,0,1.46-1.104,1.231-7.437c0,0,3.896-5.043,4.5-9.188l1.438,1.688L493.061,491.773z"/>
<path id="38" opacity="0.3" d="M554.004,451.75c0,0-0.442,28.5-0.133,30.311c0,0,1.256,5.698-0.253,7.882
	c0,0,0.617,3.369,8.992,3.433c0,0,23.625-3,25.813,0.688c0,0,2.125,1.25,20.875,0.813c0,0,11.875,6.5,12.375,8.25l0.327-83
	c0,0-11.097,1.169-16.472,1.188c0,0-10.504-7.191-17.002-2.356c0,0-9.997,2.836-19.497,1.002c0,0-8.634-0.479-7.609-2.282
	c0,0-2.514,1.993-3.182,2.137c0,0-0.743,2.537-7.041,3.196c0,0,3.657,3.573,3.14,11.032L554.004,451.75z"/>
<path id="45" opacity="0.3" d="M621.249,625.229c0,0-13.722,3.438-25.264,3.646c0,0-9.726,3.404-42.134,1.306
	c0,0-2.574-8.596-6.241-14.68c0,0-1.383-5.328-1.431-13.916c0,0-0.181-17.493,0.624-20.497c0,0,1.807-9.504,10.307-20.255
	l64.139-0.37V625.229z"/>
<path id="44" opacity="0.3" d="M621.673,503.125l-0.424,57.339l-88.139,0.002c0,0,8.724-3.652,7.925-11.997
	c0,0,0.076-3.719-4.174-8.219c0,0-3.559-9.411-8.667-7.667c0,0-8.576,3.758-10.941,1.405c0,0-7.439-5.252,0-9.953l2.774-1.452
	c0,0,2.174-3.356,11.42-2.386c0,0,13.909,1.662,15.33,2.553c0,0,4.272,3.444,6.678,1.263c0,0,5.328-3.554-1.3-20.158
	c0,0-1.251-3.629-4.689-6.408c0,0-2.697-5.005-9.692-5.06c0,0,9.978-0.145,11.408-0.6c0,0,3.196,0.68,4.438-1.846
	c0,0,0.647,3.628,9.736,3.343c0,0,20.964-2.744,25.067,0.776c0,0,6.063,1.688,20.875,0.813
	C609.298,494.875,621.152,501,621.673,503.125z"/>
<text transform="matrix(1 0 0 1 20 280)" fill="#FFCB4A" font-family="'Segoe UI'" font-size="14">Владение:</text>
<text transform="matrix(1 0 0 1 20 330)" fill="#FFCB4A" font-family="'Segoe UI'" font-size="14">Уровень:</text>
<text transform="matrix(1 0 0 1 20 380)" fill="#FFCB4A" font-family="'Segoe UI'" font-size="14">Правитель:</text>
<text transform="matrix(1 0 0 1 20 430)" fill="#FFCB4A" font-family="'Segoe UI'" font-size="14">Захватчик:</text>
<text transform="matrix(1 0 0 1 20 480)" fill="#FFCB4A" font-family="'Segoe UI'" font-size="14">Время захвата:</text>
<text id="zone_name" transform="matrix(1 0 0 1 20 300)" fill="#FFFFFF" font-family="'Segoe UI'" font-size="14">-</text>
<text id="zone_level" transform="matrix(1 0 0 1 20 350)" fill="#FFFFFF" font-family="'Segoe UI'" font-size="14">-</text>
<text id="zone_owner" transform="matrix(1 0 0 1 20 400)" fill="#FFFFFF" font-family="'Segoe UI'" font-size="14">-</text>
<text id="zone_challenger" transform="matrix(1 0 0 1 20 450)" fill="#FFFFFF" font-family="'Segoe UI'" font-size="14">-</text>
<text id="zone_challenge_time" transform="matrix(1 0 0 1 20 500)" fill="#FFFFFF" font-family="'Segoe UI'" font-size="14">-</text>
</svg>
